<svg width="24" height="32" viewBox="0 0 24 32" fill="none" xmlns="http://www.w3.org/2000/svg">
<g clip-path="url(#clip0)">
<path d="M12.6329 18.4044L23.2841 7.75319C23.6247 7.40058 23.6149 6.83868 23.2623 6.49813C22.9183 6.16591 22.373 6.16591 22.0291 6.49813L12.0054 16.5219L1.98162 6.49813C1.63504 6.1516 1.07314 6.1516 0.726564 6.49813C0.380033 6.84477 0.380033 7.40661 0.726564 7.75319L11.3778 18.4044C11.7245 18.751 12.2863 18.751 12.6329 18.4044Z" fill="#2F333D"/>
</g>
<g clip-path="url(#clip1)">
<path d="M12.6329 25.5019L23.2841 14.8506C23.6247 14.498 23.6149 13.9361 23.2623 13.5956C22.9183 13.2633 22.373 13.2633 22.0291 13.5956L12.0054 23.6193L1.98162 13.5956C1.63504 13.249 1.07314 13.249 0.726564 13.5956C0.380033 13.9422 0.380033 14.504 0.726564 14.8506L11.3778 25.5019C11.7245 25.8484 12.2863 25.8484 12.6329 25.5019Z" fill="#2F333D"/>
</g>
<defs>
<clipPath id="clip0">
<rect width="23.0666" height="23.0666" fill="white" transform="translate(23.5333 0.917969) rotate(90)"/>
</clipPath>
<clipPath id="clip1">
<rect width="23.0666" height="23.0666" fill="white" transform="translate(23.5333 8.0154) rotate(90)"/>
</clipPath>
</defs>
</svg>
