<svg width="146" height="41" viewBox="0 0 146 41" fill="none" xmlns="http://www.w3.org/2000/svg">
<path d="M28.8164 2.18384C31.2754 3.30163 33.4857 4.90032 35.3172 6.8857C37.1487 8.87108 38.5643 11.203 39.4805 13.744H32.3605C32.1407 13.745 31.924 13.6927 31.7289 13.5916C31.5338 13.4906 31.366 13.3437 31.24 13.1637C30.2649 11.7485 29.0212 10.5387 27.5796 9.60299C27.3283 9.44271 27.1363 9.20468 27.0328 8.92515C26.9292 8.64563 26.9199 8.33993 27.0063 8.05462L28.8164 2.18384Z" fill="#2F333D"/>
<path d="M24.0023 1.36393L22.3709 7.13915C22.3332 7.2729 22.2497 7.38916 22.1351 7.46764C22.0204 7.54611 21.8818 7.5818 21.7435 7.56848C21.328 7.52786 20.9079 7.50801 20.4832 7.50893C17.6441 7.50924 14.8824 8.43479 12.6165 10.1454C10.3506 11.856 8.70394 14.2585 7.92589 16.9889H19.4819L17.6496 23.1269C17.5721 23.3817 17.415 23.6049 17.2014 23.7639C16.9879 23.9229 16.729 24.0094 16.4627 24.0105H1.1729C1.01222 24.0105 0.856946 23.9525 0.735594 23.8471C0.614241 23.7418 0.534951 23.5963 0.512281 23.4372C0.111529 20.6373 0.303539 17.7845 1.07587 15.0635C1.84819 12.3426 3.1836 9.81431 4.99556 7.6425C6.80751 5.47069 9.05557 3.70383 11.5941 2.45641C14.1325 1.209 16.9048 0.508869 19.7312 0.401397C20.9976 0.354115 22.2657 0.425055 23.519 0.613294C23.6024 0.626018 23.6823 0.656342 23.7531 0.702256C23.824 0.74817 23.8842 0.808625 23.9299 0.87961C23.9756 0.950595 24.0057 1.03049 24.0182 1.11399C24.0307 1.19749 24.0253 1.28269 24.0023 1.36393Z" fill="#2F333D"/>
<path d="M11.5599 38.8169C9.101 37.6987 6.8907 36.0997 5.05924 34.1141C3.22778 32.1285 1.81219 29.7965 0.895874 27.2554H8.01311C8.23275 27.2541 8.44942 27.3061 8.64456 27.407C8.83969 27.5078 9.00747 27.6544 9.13353 27.8343C10.1083 29.2498 11.3521 30.4597 12.7939 31.395C13.0454 31.5555 13.2375 31.7938 13.341 32.0736C13.4445 32.3533 13.4537 32.6592 13.3673 32.9447L11.5599 38.8169Z" fill="#2F333D"/>
<path d="M16.374 39.6354L18.0055 33.8602C18.0434 33.7266 18.1269 33.6104 18.2415 33.532C18.3561 33.4536 18.4946 33.4178 18.6329 33.4308C19.0484 33.4715 19.4685 33.4913 19.8932 33.4904C22.7323 33.4901 25.4939 32.5645 27.7598 30.8539C30.0257 29.1433 31.6724 26.7408 32.4505 24.0104H20.8945L22.7268 17.8724C22.8043 17.6176 22.9613 17.3944 23.1749 17.2354C23.3885 17.0764 23.6474 16.99 23.9137 16.9888H39.2035C39.3641 16.9888 39.5194 17.0468 39.6408 17.1522C39.7621 17.2575 39.8414 17.4031 39.8641 17.5621C40.2648 20.3621 40.0728 23.215 39.3005 25.936C38.5282 28.657 37.1928 31.1854 35.3809 33.3573C33.5689 35.5292 31.3209 37.2962 28.7824 38.5438C26.2439 39.7913 23.4716 40.4916 20.6452 40.5993C19.381 40.645 18.1153 40.5736 16.8643 40.386C16.7802 40.3742 16.6996 40.3445 16.628 40.2989C16.5563 40.2534 16.4952 40.1931 16.4488 40.122C16.4024 40.0509 16.3717 39.9707 16.3588 39.8868C16.3459 39.8028 16.3511 39.7171 16.374 39.6354Z" fill="#2F333D"/>
<path d="M57.3935 13.966C56.0975 12.688 54.4055 12.04 52.7135 12.04C48.2675 12.04 46.0535 15.316 46.0535 18.862C46.0535 22.174 47.9795 25.288 52.7135 25.288C54.9275 25.288 56.4935 24.442 57.7355 23.02V17.71H52.3355V19.834H55.5575V22.066C54.5675 22.858 53.7035 23.074 52.7135 23.074C49.5815 23.074 48.3755 20.932 48.3755 18.862C48.3755 16.27 50.0135 14.218 52.7135 14.218C53.8115 14.218 55.0715 14.668 55.9175 15.478L57.3935 13.966ZM66.4748 17.35C65.9708 16.468 64.8368 15.91 63.6488 15.91C61.0568 15.892 59.0228 17.494 59.0228 20.554C59.0228 23.668 60.9668 25.288 63.5948 25.27C64.5848 25.252 65.9708 24.748 66.4748 23.704L66.5828 25H68.6528V16.126H66.5468L66.4748 17.35ZM63.8468 17.872C67.3028 17.872 67.3028 23.254 63.8468 23.254C62.3888 23.254 61.2188 22.246 61.2188 20.554C61.2188 18.862 62.3888 17.872 63.8468 17.872ZM70.5127 12.418V25H72.6907V12.418H70.5127ZM81.5744 17.35C81.0704 16.468 79.9364 15.91 78.7484 15.91C76.1564 15.892 74.1224 17.494 74.1224 20.554C74.1224 23.668 76.0664 25.288 78.6944 25.27C79.6844 25.252 81.0704 24.748 81.5744 23.704L81.6824 25H83.7524V16.126H81.6464L81.5744 17.35ZM78.9464 17.872C82.4024 17.872 82.4024 23.254 78.9464 23.254C77.4884 23.254 76.3184 22.246 76.3184 20.554C76.3184 18.862 77.4884 17.872 78.9464 17.872ZM85.2026 16.126V18.124H89.1266L84.8786 24.082V25H92.3486V22.84H88.2266L92.3126 17.17V16.126H85.2026ZM102.465 21.346C102.807 17.692 100.953 15.856 97.9831 15.856C95.1031 15.856 93.2671 17.8 93.2671 20.5C93.2671 23.344 95.0851 25.234 98.1451 25.234C99.4951 25.234 101.025 24.766 101.961 23.794L100.557 22.408C100.053 22.93 98.9911 23.236 98.1811 23.236C96.6331 23.236 95.6791 22.444 95.5351 21.346H102.465ZM95.5711 19.528C95.8951 18.376 96.8671 17.8 98.0551 17.8C99.3151 17.8 100.215 18.376 100.359 19.528H95.5711ZM104.157 16.126V25H106.353V20.32C106.353 18.682 107.415 18.07 108.567 18.07C109.287 18.07 109.701 18.268 110.151 18.646L111.141 16.738C110.655 16.252 109.773 15.892 108.855 15.892C107.955 15.892 107.037 16.054 106.353 17.152L106.191 16.126H104.157ZM119.04 16.126L117.42 20.014L116.502 22.462L115.656 19.96L114.306 16.126H111.75L115.296 24.856L113.64 28.708H116.052L121.47 16.126H119.04ZM122.56 23.866C122.56 25.576 125.152 25.576 125.152 23.866C125.152 22.156 122.56 22.156 122.56 23.866ZM127.028 16.126V20.788C127.028 23.542 128.576 25.144 130.7 25.144C131.942 25.144 132.788 24.712 133.706 23.812L133.85 25.018H135.812V16.126H133.634V20.662C133.634 22.012 132.716 23.146 131.366 23.146C129.962 23.146 129.224 22.12 129.224 20.77V16.126H127.028ZM137.515 16.126V18.124H141.439L137.191 24.082V25H144.661V22.84H140.539L144.625 17.17V16.126H137.515Z" fill="#2F333D"/>
</svg>
