<svg width="39" height="39" viewBox="0 0 39 39" fill="none" xmlns="http://www.w3.org/2000/svg">
<g clip-path="url(#clip0)">
<path d="M37.8893 0.944702H1.15595C0.805714 0.944702 0.522644 1.22844 0.522644 1.57801V38.3113C0.522644 38.661 0.805714 38.9447 1.15595 38.9447H37.8893C38.2395 38.9447 38.5226 38.661 38.5226 38.3114V1.57801C38.5226 1.22844 38.2396 0.944702 37.8893 0.944702ZM22.056 30.078C22.056 33.2206 19.4992 35.778 16.356 35.778C13.2127 35.778 10.656 33.2206 10.656 30.078C10.656 29.7284 10.939 29.4447 11.2893 29.4447C11.6395 29.4447 11.9226 29.7284 11.9226 30.078C11.9226 32.5227 13.9119 34.5113 16.3559 34.5113C18.7999 34.5113 20.7892 32.5226 20.7892 30.078V14.878C20.7892 14.5284 21.0723 14.2447 21.4225 14.2447C21.7727 14.2447 22.0558 14.5284 22.0558 14.878V30.078H22.056ZM29.656 24.378C32.7992 24.378 35.356 26.9354 35.356 30.078C35.356 33.2206 32.7992 35.778 29.656 35.778C26.5127 35.778 23.956 33.2206 23.956 30.078C23.956 29.7284 24.239 29.4447 24.5893 29.4447C24.9395 29.4447 25.2226 29.7284 25.2226 30.078C25.2226 32.5227 27.2119 34.5113 29.6559 34.5113C32.0999 34.5113 34.0892 32.5226 34.0892 30.078C34.0892 27.6333 32.0999 25.6447 29.6559 25.6447C26.5126 25.6447 23.9559 23.0873 23.9559 19.9447C23.9559 16.8021 26.5126 14.2447 29.6559 14.2447C32.7991 14.2447 35.3559 16.8021 35.3559 19.9447C35.3559 20.2943 35.0728 20.578 34.7226 20.578C34.3723 20.578 34.0893 20.2943 34.0893 19.9447C34.0893 17.5 32.1 15.5114 29.656 15.5114C27.2119 15.5114 25.2226 17.5001 25.2226 19.9447C25.2226 22.3893 27.2119 24.378 29.656 24.378Z" fill="white"/>
</g>
<defs>
<clipPath id="clip0">
<rect width="38" height="38" fill="white" transform="translate(0.522644 0.944702)"/>
</clipPath>
</defs>
</svg>
