<svg width="93" height="27" viewBox="0 0 93 27" fill="none" xmlns="http://www.w3.org/2000/svg">
<g clip-path="url(#clip0)">
<path d="M85.527 10.1991C85.3035 10.1991 85.0861 10.2452 84.8936 10.3538L78.8045 13.8629C78.4104 14.0896 78.1709 14.5174 78.1709 14.9727V21.9782C78.1709 22.4331 78.4104 22.8604 78.8045 23.0876L80.3947 24.0036C81.1673 24.3836 81.4521 24.3777 81.8038 24.3777C82.9477 24.3777 83.6008 23.685 83.6008 22.4813V15.566C83.6008 15.4683 83.516 15.3984 83.4199 15.3984H82.6571C82.5594 15.3984 82.4762 15.4683 82.4762 15.566V22.4813C82.4762 23.0148 81.9191 23.5514 81.0153 23.1005L79.3604 22.1329C79.3018 22.1012 79.2569 22.045 79.2569 21.9782V14.9725C79.2569 14.9062 79.3013 14.8386 79.3604 14.8049L85.4367 11.3088C85.4641 11.2928 85.4953 11.2844 85.5271 11.2844C85.5589 11.2844 85.5901 11.2928 85.6176 11.3088L91.694 14.805C91.7519 14.8398 91.7975 14.9042 91.7975 14.9729V21.9783C91.7975 22.0452 91.7637 22.1137 91.707 22.146L85.6176 25.6422C85.5655 25.6732 85.4936 25.6732 85.4367 25.6422L83.8723 24.7134C83.8485 24.7005 83.8219 24.6937 83.7948 24.6937C83.7677 24.6937 83.7411 24.7005 83.7172 24.7134C83.2855 24.9576 83.2042 24.9859 82.7992 25.1261C82.6995 25.1609 82.548 25.2149 82.851 25.3843L84.8936 26.5839C85.0862 26.6948 85.3049 26.7527 85.5272 26.7518C85.7495 26.7531 85.9682 26.6953 86.1606 26.5841L92.25 23.0877C92.644 22.8591 92.8834 22.4332 92.8834 21.9783V14.9727C92.8834 14.5176 92.644 14.0905 92.25 13.8633L86.1606 10.3542C85.9698 10.2454 85.7509 10.1993 85.5272 10.1993L85.527 10.1991Z" fill="white"/>
<path d="M87.156 15.2049C85.4221 15.2049 84.3895 15.9413 84.3895 17.166C84.3895 18.4944 85.4144 18.8594 87.0786 19.0237C89.0695 19.2182 89.2245 19.51 89.2245 19.901C89.2245 20.5794 88.6826 20.8686 87.4018 20.8686C85.7924 20.8686 85.4388 20.4677 85.3204 19.6688C85.3064 19.5831 85.2401 19.5139 85.1522 19.5139H84.3636C84.2666 19.5139 84.1826 19.5975 84.1826 19.6947C84.1826 20.7173 84.74 21.9265 87.4018 21.9265C89.3286 21.9265 90.4399 21.1718 90.4399 19.8494C90.4399 18.5386 89.5422 18.1867 87.6732 17.9401C85.7847 17.6907 85.6047 17.5686 85.6047 17.1273C85.6047 16.7629 85.7574 16.2756 87.156 16.2756C88.4056 16.2756 88.8673 16.5445 89.0565 17.3853C89.0731 17.4642 89.1428 17.5272 89.2245 17.5272H90.0134C90.0619 17.5272 90.1089 17.4974 90.1425 17.4626C90.1756 17.4255 90.199 17.3837 90.1943 17.3337C90.0721 15.8859 89.1047 15.2049 87.156 15.2049Z" fill="white"/>
<path d="M49.7285 1.01339C49.6604 1.01343 49.5935 1.03117 49.5344 1.06485C49.4757 1.09915 49.4269 1.14812 49.3929 1.20695C49.3589 1.26578 49.3408 1.33243 49.3405 1.40034V11.2699C49.3405 11.3668 49.2954 11.4536 49.2113 11.5022C49.1701 11.5261 49.1233 11.5387 49.0756 11.5387C49.0279 11.5387 48.981 11.5261 48.9398 11.5022L47.3237 10.5733C47.2058 10.5053 47.0721 10.4694 46.9359 10.4694C46.7997 10.4694 46.6659 10.5053 46.548 10.5733L40.0968 14.2888C39.8556 14.4278 39.709 14.6948 39.709 14.9727V22.4039C39.709 22.6814 39.8558 22.9357 40.0968 23.0747L46.548 26.7903C46.6659 26.8586 46.7997 26.8945 46.9359 26.8945C47.0721 26.8945 47.2059 26.8586 47.3237 26.7903L53.775 23.0747C53.8931 23.0068 53.9912 22.9091 54.0593 22.7913C54.1274 22.6735 54.1632 22.5399 54.1629 22.4039V3.87752C54.1627 3.73834 54.1256 3.6017 54.0552 3.48155C53.9848 3.3614 53.8837 3.26204 53.7622 3.19363L49.9223 1.05194C49.8621 1.01841 49.7953 1.01249 49.7285 1.01339ZM8.22829 10.2895C8.10538 10.2943 7.98967 10.3158 7.87934 10.3797L1.42791 14.0953C1.30973 14.1631 1.21162 14.2608 1.14352 14.3786C1.07542 14.4965 1.03975 14.6301 1.04015 14.7661L1.05309 24.7392C1.05309 24.8778 1.12478 25.0067 1.24697 25.0745C1.30555 25.1097 1.3726 25.1282 1.44094 25.1282C1.50928 25.1282 1.57633 25.1097 1.63491 25.0745L5.46167 22.8814C5.70407 22.7376 5.86237 22.4876 5.86237 22.2104V17.553C5.86237 17.2751 6.00881 17.0201 6.25031 16.882L7.87916 15.9403C7.99693 15.8719 8.13087 15.8363 8.2671 15.837C8.40007 15.837 8.53663 15.8702 8.65486 15.9403L10.2839 16.882C10.4022 16.9497 10.5004 17.0474 10.5685 17.1653C10.6367 17.2832 10.6723 17.4169 10.6718 17.553V22.2102C10.6718 22.4874 10.8318 22.7392 11.0725 22.8812L14.8993 25.0745C14.9579 25.1097 15.0249 25.1282 15.0933 25.1282C15.1616 25.1282 15.2287 25.1097 15.2872 25.0745C15.3462 25.0405 15.3952 24.9916 15.4292 24.9327C15.4633 24.8738 15.4812 24.807 15.4813 24.739L15.4939 14.7661C15.4946 14.6301 15.4591 14.4962 15.391 14.3784C15.3229 14.2605 15.2245 14.1628 15.1061 14.0953L8.65486 10.3797C8.54579 10.3158 8.42972 10.2945 8.30591 10.2895H8.22829ZM66.1992 10.3797C66.0644 10.3797 65.9323 10.4137 65.8114 10.483L59.3601 14.1986C59.242 14.2664 59.1439 14.3642 59.0758 14.482C59.0077 14.5998 58.9719 14.7334 58.9722 14.8694V22.3006C58.9722 22.5801 59.13 22.8333 59.3729 22.9716L65.7726 26.6098C66.0089 26.7443 66.2974 26.7545 66.5353 26.6223L70.4139 24.4679C70.5369 24.3998 70.6201 24.2725 70.6207 24.1326C70.6213 24.0645 70.6037 23.9975 70.5696 23.9385C70.5355 23.8795 70.4862 23.8307 70.4268 23.7971L63.9367 20.0814C63.8153 20.0122 63.7299 19.8722 63.7299 19.733V17.411C63.7299 17.272 63.8162 17.1447 63.9367 17.0755L65.9535 15.9143C66.0125 15.8802 66.0794 15.8623 66.1475 15.8623C66.2156 15.8623 66.2825 15.8802 66.3415 15.9143L68.3581 17.0755C68.4172 17.1094 68.4662 17.1582 68.5003 17.2171C68.5344 17.276 68.5523 17.3428 68.5521 17.4108V19.2428C68.552 19.3108 68.5698 19.3776 68.6039 19.4365C68.6379 19.4954 68.6869 19.5443 68.746 19.5781C68.867 19.6479 69.0132 19.6481 69.1338 19.5781L72.9995 17.3337C73.1175 17.2656 73.2154 17.1678 73.2835 17.05C73.3516 16.9322 73.3874 16.7987 73.3875 16.6627V14.8696C73.3875 14.5926 73.2401 14.3378 72.9995 14.1986L66.5871 10.483C66.4692 10.4149 66.3353 10.3793 66.1992 10.3799V10.3797ZM46.9099 15.9274C46.9437 15.9274 46.9832 15.9356 47.0134 15.953L49.2243 17.2302C49.2843 17.2648 49.3278 17.3289 49.3278 17.3979V19.9523C49.3278 20.0217 49.2846 20.0856 49.2243 20.1202L47.0134 21.3974C46.9839 21.4142 46.9505 21.4231 46.9165 21.4231C46.8825 21.4231 46.8491 21.4142 46.8195 21.3974L44.6089 20.1202C44.5487 20.0854 44.5054 20.0217 44.5054 19.9523V17.3979C44.5054 17.3287 44.5488 17.2652 44.6089 17.2302L46.8195 15.9532C46.8467 15.9363 46.8781 15.9274 46.9101 15.9275V15.9274H46.9099Z" fill="white"/>
<path d="M27.6079 10.3409C27.4735 10.3409 27.3406 10.375 27.2202 10.4442L20.7689 14.1469C20.5276 14.2855 20.381 14.5531 20.381 14.8306V22.2618C20.381 22.5397 20.5278 22.7936 20.7689 22.9328L27.2202 26.6483C27.338 26.7166 27.4718 26.7525 27.608 26.7525C27.7443 26.7525 27.8781 26.7166 27.9959 26.6483L34.4471 22.9328C34.5652 22.8649 34.6633 22.7671 34.7314 22.6493C34.7995 22.5315 34.8352 22.3978 34.8349 22.2618V14.8306C34.8349 14.5527 34.6883 14.2855 34.4471 14.1469L27.9959 10.4442C27.8779 10.3762 27.7441 10.3406 27.6079 10.3409ZM66.1862 16.9723C66.1605 16.9723 66.132 16.9723 66.1088 16.9852L64.8677 17.7077C64.8446 17.7205 64.8252 17.7392 64.8116 17.7618C64.7979 17.7845 64.7905 17.8103 64.7901 17.8368V19.2558C64.7901 19.3093 64.821 19.3582 64.8677 19.3849L66.1088 20.0945C66.1553 20.1214 66.2049 20.1214 66.2509 20.0945L67.492 19.3848C67.5151 19.3719 67.5343 19.3532 67.548 19.3306C67.5616 19.308 67.569 19.2822 67.5696 19.2558V17.8366C67.569 17.8102 67.5616 17.7845 67.548 17.7619C67.5343 17.7392 67.5151 17.7206 67.492 17.7077L66.2509 16.985C66.2279 16.9716 66.2121 16.9725 66.1862 16.9725V16.9723Z" fill="white"/>
</g>
<defs>
<clipPath id="clip0">
<rect width="92" height="26" fill="white" transform="translate(0.886169 0.944702)"/>
</clipPath>
</defs>
</svg>
