<svg width="31" height="32" viewBox="0 0 31 32" fill="none" xmlns="http://www.w3.org/2000/svg">
<g clip-path="url(#clip0)">
<path d="M13.725 23.6593C13.4963 23.8953 13.4963 24.2787 13.725 24.5152C13.9541 24.7515 14.3249 24.7515 14.5533 24.5152C14.7824 24.2787 14.7824 23.8953 14.5533 23.6593C14.3249 23.4225 13.9541 23.4225 13.725 23.6593Z" fill="white"/>
<path d="M28.7513 22.6075L24.3027 18.6987C24.2821 18.6807 24.2604 18.6642 24.2377 18.6493C23.0707 17.8815 21.5722 18.0516 20.5937 19.0624L18.1682 21.5685C18.0002 21.7423 17.7496 21.7937 17.5299 21.7C14.7911 20.5293 12.5412 18.7668 10.8426 16.462C9.5474 14.7045 9.08048 13.3079 9.01891 13.1111C9.01159 13.069 8.99991 13.0272 8.98343 12.9862C8.89257 12.7592 8.94223 12.5007 9.11069 12.3271L11.5359 9.8203C12.5144 8.80921 12.6787 7.26077 11.9358 6.0548C11.9298 6.0451 11.9236 6.03564 11.9172 6.02618L8.70466 1.41303C7.69391 -0.207306 5.4923 -0.452095 4.17096 0.913048L3.68528 1.41492C3.68505 1.4154 3.68459 1.41587 3.68413 1.41611L1.95012 3.20792C-0.117594 5.34479 -0.455881 8.55567 0.972113 12.4941C2.19526 15.8676 4.64383 19.5598 7.86672 22.8901C11.1658 26.2992 14.8355 28.8762 18.1996 30.1465C21.5294 31.4036 25.0713 31.5585 27.5782 28.9678L29.2136 27.2781C30.529 25.9187 30.2994 23.6586 28.7513 22.6075ZM23.5767 19.6499L28.0214 23.5554C28.0417 23.5734 28.0635 23.59 28.0861 23.6049C29.0355 24.2295 29.1793 25.6013 28.3848 26.422L28.2635 26.5475L20.6827 20.6825L21.4222 19.9186C22.0002 19.3212 22.8809 19.2131 23.5767 19.6499ZM7.72573 2.07834C7.73168 2.08804 7.73786 2.09773 7.74427 2.10696L10.9555 6.71845C11.3917 7.44005 11.2908 8.36126 10.7074 8.96412L9.99074 9.70488L4.86196 1.91136L4.99952 1.76922C5.79717 0.944977 7.12354 1.10084 7.72573 2.07834ZM18.6015 29.0092C15.3944 27.7982 11.8763 25.321 8.69527 22.034C5.58797 18.8233 3.23484 15.2844 2.06914 12.0693C1.19413 9.65592 0.607046 6.3081 2.77868 4.06432L4.01853 2.7829L9.14731 10.5764L8.28237 11.4707C7.79027 11.9782 7.63555 12.7294 7.88114 13.3982C8.06608 14.1825 8.91706 15.8104 9.77559 17.01C11.039 18.7753 13.3322 21.2159 17.082 22.8189C17.7409 23.1006 18.4923 22.946 18.9968 22.4249L19.8457 21.5475L27.4265 27.4125L26.7497 28.1116C24.4217 30.5174 21.0338 29.9275 18.6015 29.0092Z" fill="white"/>
<path d="M12.6254 22.2137C12.0065 21.6529 10.936 20.6884 10.3723 20.0891C8.98987 18.6211 7.53944 16.8416 6.67702 15.5559C6.49277 15.2811 6.1277 15.2125 5.86174 15.4031C5.59578 15.5935 5.52963 15.9707 5.71388 16.2456C6.80153 17.8671 8.39958 19.7303 9.53232 20.9332C10.1274 21.5661 11.207 22.5391 11.8527 23.124C12.0956 23.3439 12.4657 23.3198 12.6797 23.0679C12.893 22.8168 12.8687 22.4341 12.6254 22.2137Z" fill="white"/>
</g>
<defs>
<clipPath id="clip0">
<rect width="30" height="31" fill="white" transform="translate(0.102844 0.0263672)"/>
</clipPath>
</defs>
</svg>
