<svg width="44" height="43" viewBox="0 0 44 43" fill="none" xmlns="http://www.w3.org/2000/svg">
<g clip-path="url(#clip0)">
<path d="M38.7282 20.7576C38.3416 21.2473 37.922 21.7371 37.4736 22.225C37.7818 22.5744 38.0755 22.9244 38.3519 23.2743C41.2087 26.8924 42.0198 30.1746 40.6358 32.516C39.2518 34.8575 35.9365 35.8124 31.2997 35.2049C30.811 35.1408 30.312 35.0596 29.8051 34.9631C29.6326 35.4557 29.4499 35.9329 29.2566 36.392C27.4769 40.6176 24.9724 42.9447 22.2044 42.9447C19.4364 42.9447 16.9319 40.6176 15.1523 36.392C14.959 35.9329 14.7763 35.4557 14.6038 34.9631C14.0969 35.0595 13.5979 35.1408 13.1092 35.2049C8.47288 35.8123 5.15718 34.8575 3.77312 32.516C2.38905 30.1745 3.20018 26.8924 6.05699 23.2743C6.3333 22.9244 6.62699 22.5744 6.9353 22.225C6.48682 21.7371 6.06732 21.2474 5.68065 20.7576C2.82384 17.1396 2.01272 13.8574 3.39678 11.516C4.50882 9.63468 6.8671 8.64859 10.1562 8.64859C10.9607 8.64859 11.8215 8.70765 12.7327 8.82708C13.3196 8.90403 13.9211 9.00542 14.5339 9.12888C14.7266 8.56417 14.9326 8.01908 15.1523 7.49736C16.9319 3.27185 19.4364 0.944702 22.2044 0.944702C24.9724 0.944702 27.4769 3.27185 29.2565 7.49744C29.4762 8.01916 29.6822 8.56425 29.875 9.12896C30.4877 9.0055 31.0892 8.90403 31.6761 8.82717C32.5876 8.70773 33.4479 8.64867 34.2526 8.64867C37.5414 8.64867 39.9002 9.63485 41.012 11.5161C42.3962 13.8575 41.5851 17.1396 38.7282 20.7576ZM33.8905 32.9266C36.1935 32.9266 37.8213 32.3555 38.4538 31.2856C39.2814 29.8855 38.517 27.5133 36.3568 24.7773C36.1509 24.5166 35.9342 24.2558 35.7084 23.995C34.4454 25.1687 33.0236 26.3171 31.4768 27.4116C31.2631 29.2341 30.9419 30.9756 30.5218 32.5948C31.755 32.8171 32.8874 32.9266 33.8905 32.9266ZM25.5491 16.0391C24.4166 15.4005 23.2988 14.8276 22.2052 14.3182C21.1108 14.8278 19.9928 15.4001 18.8597 16.0391C17.6096 16.7441 16.4133 17.4902 15.2846 18.2653C15.1899 19.4424 15.1386 20.6707 15.1386 21.9447C15.1386 23.3719 15.2027 24.7419 15.3206 26.0464C16.3271 26.7215 17.3844 27.3731 18.4833 27.9929C19.7464 28.7051 20.9908 29.3347 22.2043 29.8865C23.4179 29.3347 24.6623 28.7051 25.9254 27.9929C27.0244 27.3731 28.0816 26.7215 29.0881 26.0464C29.206 24.7419 29.2701 23.3719 29.2701 21.9447C29.2701 20.6707 29.2189 19.4424 29.1241 18.2653C27.9956 17.4902 26.7992 16.7441 25.5491 16.0391ZM28.7398 15.0537C28.571 14.0062 28.3663 13.014 28.1311 12.0841C27.1966 12.3493 26.223 12.6702 25.2188 13.0483C25.7501 13.3238 26.2806 13.61 26.8089 13.9079C27.4668 14.279 28.1107 14.6616 28.7398 15.0537ZM19.1899 13.0483C18.1855 12.6702 17.2121 12.3496 16.2775 12.0844C16.0425 13.0141 15.8377 14.0063 15.6689 15.0537C16.298 14.6616 16.9419 14.279 17.5999 13.9079C18.1281 13.61 18.6586 13.3238 19.1899 13.0483ZM12.6498 20.2266C11.852 20.8722 11.1044 21.53 10.4147 22.1938C11.1137 22.8449 11.8669 23.4889 12.6681 24.1203C12.6359 23.4021 12.6191 22.6763 12.6191 21.9447C12.6191 21.3681 12.6298 20.7952 12.6498 20.2266ZM15.7386 29.253C15.908 30.2335 16.1092 31.163 16.3373 32.036C17.2324 31.7917 18.1653 31.495 19.1279 31.1455C18.4915 30.8211 17.8559 30.4806 17.2236 30.124C16.7202 29.8402 16.2253 29.5494 15.7386 29.253ZM25.2808 31.1456C26.2434 31.4951 27.1763 31.7918 28.0716 32.0361C28.2996 31.163 28.5008 30.2335 28.6702 29.253C28.1835 29.5494 27.6886 29.8402 27.1853 30.124C26.5528 30.4807 25.9174 30.8211 25.2808 31.1456ZM31.7407 24.1203C32.542 23.4889 33.2951 22.8449 33.9941 22.1938C33.3044 21.53 32.5568 20.8722 31.759 20.2266C31.779 20.7952 31.7897 21.3681 31.7897 21.9447C31.7897 22.6763 31.7729 23.4021 31.7407 24.1203ZM22.2044 40.4838C24.0268 40.4838 25.9626 38.2195 27.3463 34.3891C25.6792 33.9314 23.9509 33.3247 22.2044 32.5829C20.4579 33.3247 18.7296 33.9314 17.0625 34.3891C18.4462 38.2195 20.382 40.4838 22.2044 40.4838ZM5.95503 31.2855C6.5876 32.3556 8.21463 32.9265 10.5183 32.9265C11.5213 32.9265 12.6538 32.817 13.8871 32.5947C13.4669 30.9754 13.1458 29.2339 12.9321 27.4115C11.3853 26.3171 9.96352 25.1686 8.70048 23.9949C8.47473 24.2557 8.25797 24.5165 8.05212 24.7772C5.89179 27.5132 5.12745 29.8854 5.95503 31.2855ZM10.142 11.1055C7.83897 11.1057 6.21118 11.6765 5.5787 12.7465C4.75111 14.1466 5.51546 16.5187 7.6757 19.2547C7.9835 19.6446 8.31432 20.0349 8.66613 20.4246C9.91489 19.2254 11.3323 18.0492 12.882 16.926C13.086 15.0175 13.4063 13.1919 13.8345 11.4974C12.4749 11.234 11.2324 11.1054 10.142 11.1055ZM22.2044 3.40564C20.3467 3.40564 18.3713 5.75911 16.9828 9.72541C18.6782 10.2068 20.4336 10.8406 22.2044 11.6111C23.9752 10.8406 25.7307 10.2068 27.426 9.72541C26.0375 5.75911 24.0621 3.40564 22.2044 3.40564ZM38.8301 12.7465C37.8982 11.1698 34.8066 10.6775 30.5742 11.4974C31.0025 13.1919 31.3228 15.0175 31.5268 16.926C33.0765 18.0492 34.4939 19.2254 35.7426 20.4246C36.0944 20.0349 36.4252 19.6445 36.733 19.2547C38.8934 16.5187 39.6578 14.1466 38.8301 12.7465Z" fill="white"/>
<path d="M22.2044 18.1426C24.3543 18.1426 26.0971 19.8449 26.0971 21.9447C26.0971 24.0446 24.3543 25.7469 22.2044 25.7469C20.0545 25.7469 18.3117 24.0446 18.3117 21.9447C18.3117 19.8449 20.0545 18.1426 22.2044 18.1426Z" fill="white"/>
</g>
<defs>
<clipPath id="clip0">
<rect width="43" height="42" fill="white" transform="matrix(1 0 0 -1 0.704407 42.9447)"/>
</clipPath>
</defs>
</svg>
