<svg width="58" height="58" viewBox="0 0 58 58" fill="none" xmlns="http://www.w3.org/2000/svg">
<path d="M41.0283 2.83765C44.5406 4.43427 47.6978 6.7178 50.3139 9.55365C52.9299 12.3895 54.9519 15.7203 56.2605 19.3498H46.0905C45.7766 19.3512 45.4671 19.2766 45.1884 19.1322C44.9097 18.9878 44.6701 18.7781 44.4901 18.5209C43.0972 16.4996 41.3208 14.7715 39.2617 13.4349C38.9027 13.206 38.6284 12.866 38.4806 12.4667C38.3327 12.0675 38.3194 11.6308 38.4427 11.2233L41.0283 2.83765Z" fill="#EA5157"/>
<path d="M34.152 1.66661L31.8217 9.91577C31.7679 10.1068 31.6487 10.2729 31.4849 10.385C31.3211 10.4971 31.1231 10.548 30.9255 10.529C30.3321 10.471 29.732 10.4426 29.1254 10.444C25.0701 10.4444 21.1254 11.7664 17.8889 14.2098C14.6523 16.6532 12.3003 20.0848 11.1889 23.9848H27.6951L25.0779 32.7523C24.9672 33.1162 24.7429 33.435 24.4378 33.6621C24.1327 33.8892 23.7629 34.0127 23.3826 34.0144H1.54314C1.31363 34.0143 1.09184 33.9314 0.918507 33.781C0.745172 33.6306 0.631915 33.4226 0.599535 33.1954C0.0271124 29.1961 0.301374 25.1212 1.40454 21.2347C2.50771 17.3482 4.41517 13.7369 7.00331 10.6347C9.59145 7.53259 12.8025 5.00885 16.4284 3.22708C20.0543 1.44531 24.0141 0.445264 28.0512 0.291753C29.8602 0.224217 31.6715 0.325546 33.4616 0.594421C33.5808 0.612595 33.6948 0.655909 33.796 0.721491C33.8972 0.787074 33.9833 0.873426 34.0486 0.974819C34.1139 1.07621 34.1569 1.19033 34.1747 1.3096C34.1925 1.42887 34.1848 1.55056 34.152 1.66661Z" fill="white"/>
<path d="M16.3797 55.1634C12.8674 53.5662 9.71023 51.2822 7.09423 48.4461C4.47822 45.6099 2.45624 42.2789 1.1474 38.6493H11.3134C11.6272 38.6475 11.9367 38.7218 12.2154 38.8658C12.4941 39.0098 12.7338 39.2192 12.9138 39.4762C14.3062 41.498 16.0827 43.2262 18.1422 44.5622C18.5014 44.7914 18.7758 45.1318 18.9236 45.5314C19.0714 45.931 19.0847 46.368 18.9612 46.7758L16.3797 55.1634Z" fill="#EA5157"/>
<path d="M23.256 56.3325L25.5863 48.0834C25.6404 47.8926 25.7597 47.7267 25.9234 47.6147C26.0871 47.5027 26.2849 47.4515 26.4824 47.4701C27.0759 47.5282 27.6759 47.5565 28.2826 47.5552C32.3379 47.5548 36.2826 46.2327 39.5191 43.7894C42.7556 41.346 45.1077 37.9144 46.2191 34.0143H29.7128L32.33 25.2469C32.4407 24.883 32.6651 24.5642 32.9701 24.3371C33.2752 24.11 33.645 23.9865 34.0254 23.9848H55.8648C56.0943 23.9849 56.3161 24.0678 56.4895 24.2182C56.6628 24.3686 56.7761 24.5766 56.8084 24.8038C57.3808 28.8031 57.1066 32.8782 56.0034 36.7648C54.9003 40.6513 52.9928 44.2628 50.4047 47.3651C47.8166 50.4674 44.6056 52.9913 40.9797 54.7733C37.3538 56.5553 33.394 57.5556 29.3568 57.7094C27.551 57.7747 25.7432 57.6727 23.9562 57.4047C23.8361 57.3878 23.7211 57.3454 23.6187 57.2803C23.5163 57.2153 23.4291 57.1291 23.3627 57.0276C23.2964 56.926 23.2526 56.8115 23.2342 56.6916C23.2158 56.5717 23.2232 56.4493 23.256 56.3325Z" fill="white"/>
</svg>
